# This file uses centimeters as units for non-parametric coordinates.

mtllib joystick.mtl
g default
v 2.292363 3.617665 0.339111
v 2.359328 3.617665 0.339111
v 2.265688 4.286019 0.365786
v 2.386003 4.286019 0.365786
v 2.265688 4.286019 0.245471
v 2.386003 4.286019 0.245471
v 2.292363 3.617665 0.272146
v 2.359328 3.617665 0.272146
v 2.450969 4.249741 0.430753
v 2.200721 4.249741 0.430753
v 2.200721 4.249741 0.180505
v 2.450969 4.249741 0.180505
v 2.471462 4.185542 0.451245
v 2.180229 4.185542 0.451245
v 2.180229 4.185542 0.160012
v 2.471462 4.185542 0.160012
v 2.471462 4.121342 0.451245
v 2.180229 4.121342 0.451245
v 2.180229 4.121342 0.160012
v 2.471462 4.121342 0.160012
v 2.436248 3.905350 0.416031
v 2.215443 3.905350 0.416031
v 2.215443 3.905350 0.195226
v 2.436248 3.905350 0.195226
v 2.386628 3.877431 0.366411
v 2.265063 3.877431 0.366411
v 2.265063 3.877431 0.244846
v 2.386628 3.877431 0.244846
v 2.386627 3.802846 0.366411
v 2.265063 3.802846 0.366411
v 2.265063 3.802846 0.244847
v 2.386627 3.802846 0.244847
v 2.386627 3.728260 0.366411
v 2.265063 3.728260 0.366411
v 2.265063 3.728260 0.244847
v 2.386627 3.728260 0.244847
v 2.386627 3.653674 0.366411
v 2.265063 3.653674 0.366411
v 2.265063 3.653674 0.244847
v 2.386627 3.653674 0.244847
vt 0.375000 0.000000
vt 0.625000 0.000000
vt 0.375000 0.250000
vt 0.625000 0.250000
vt 0.375000 0.500000
vt 0.625000 0.500000
vt 0.375000 0.750000
vt 0.625000 0.750000
vt 0.375000 1.000000
vt 0.625000 1.000000
vt 0.875000 0.000000
vt 0.875000 0.250000
vt 0.125000 0.000000
vt 0.125000 0.250000
vt 0.625000 0.222222
vt 0.375000 0.222222
vt 0.125000 0.222222
vt 0.375000 0.527778
vt 0.625000 0.527778
vt 0.875000 0.222222
vt 0.625000 0.194444
vt 0.375000 0.194444
vt 0.125000 0.194444
vt 0.375000 0.555556
vt 0.625000 0.555556
vt 0.875000 0.194444
vt 0.625000 0.166667
vt 0.375000 0.166667
vt 0.125000 0.166667
vt 0.375000 0.583333
vt 0.625000 0.583333
vt 0.875000 0.166667
vt 0.625000 0.138889
vt 0.375000 0.138889
vt 0.125000 0.138889
vt 0.375000 0.611111
vt 0.625000 0.611111
vt 0.875000 0.138889
vt 0.625000 0.111111
vt 0.375000 0.111111
vt 0.125000 0.111111
vt 0.375000 0.638889
vt 0.625000 0.638889
vt 0.875000 0.111111
vt 0.625000 0.083333
vt 0.375000 0.083333
vt 0.125000 0.083333
vt 0.375000 0.666667
vt 0.625000 0.666667
vt 0.875000 0.083333
vt 0.625000 0.055556
vt 0.375000 0.055556
vt 0.125000 0.055556
vt 0.375000 0.694445
vt 0.625000 0.694445
vt 0.875000 0.055556
vt 0.625000 0.027778
vt 0.375000 0.027778
vt 0.125000 0.027778
vt 0.375000 0.722222
vt 0.625000 0.722222
vt 0.875000 0.027778
vn 0.000000 -0.604136 0.796881
vn 0.000000 -0.604136 0.796881
vn 0.000000 -0.147484 0.989064
vn 0.000000 -0.147484 0.989064
vn 0.000000 1.000000 0.000000
vn 0.000000 1.000000 0.000000
vn 0.000000 1.000000 0.000000
vn 0.000000 1.000000 0.000000
vn 0.000000 -0.147484 -0.989065
vn 0.000000 -0.147484 -0.989065
vn 0.000000 -0.604136 -0.796881
vn 0.000000 -0.604136 -0.796881
vn 0.000000 -1.000000 0.000000
vn 0.000000 -1.000000 0.000000
vn 0.000000 -1.000000 0.000000
vn 0.000000 -1.000000 0.000000
vn 0.796880 -0.604137 0.000000
vn 0.796880 -0.604137 0.000000
vn 0.989064 -0.147485 0.000000
vn 0.989064 -0.147485 0.000000
vn -0.796880 -0.604137 0.000000
vn -0.796880 -0.604137 0.000000
vn -0.989064 -0.147485 0.000000
vn -0.989064 -0.147485 0.000000
vn 0.000000 0.475338 0.879804
vn 0.000000 0.475338 0.879804
vn 0.000000 0.873099 0.487543
vn 0.000000 0.873099 0.487543
vn -0.879803 0.475338 0.000000
vn -0.879803 0.475338 0.000000
vn -0.487543 0.873099 0.000000
vn -0.487543 0.873099 0.000000
vn 0.000000 0.873099 -0.487543
vn 0.000000 0.873099 -0.487543
vn 0.000000 0.475338 -0.879804
vn 0.000000 0.475338 -0.879804
vn 0.879803 0.475338 0.000000
vn 0.879803 0.475338 0.000000
vn 0.487543 0.873099 0.000000
vn 0.487543 0.873099 0.000000
vn 0.000000 0.136036 0.990704
vn 0.000000 0.136036 0.990704
vn -0.990704 0.136036 0.000000
vn -0.990704 0.136036 0.000000
vn 0.000000 0.136036 -0.990704
vn 0.000000 0.136036 -0.990704
vn 0.990704 0.136036 0.000000
vn 0.990704 0.136036 0.000000
vn 0.000000 -0.117633 0.993057
vn 0.000000 -0.117633 0.993057
vn -0.993057 -0.117633 0.000000
vn -0.993057 -0.117633 0.000000
vn 0.000000 -0.117633 -0.993057
vn 0.000000 -0.117633 -0.993057
vn 0.993057 -0.117633 0.000000
vn 0.993057 -0.117633 0.000000
vn 0.000000 -0.223288 0.974753
vn 0.000000 -0.223288 0.974753
vn -0.974753 -0.223287 0.000000
vn -0.974753 -0.223287 0.000000
vn 0.000000 -0.223288 -0.974753
vn 0.000000 -0.223288 -0.974753
vn 0.974753 -0.223287 0.000000
vn 0.974753 -0.223287 0.000000
vn 0.000000 -0.611012 0.791621
vn 0.000000 -0.611012 0.791621
vn -0.791622 -0.611011 0.000000
vn -0.791622 -0.611011 0.000000
vn 0.000000 -0.611012 -0.791621
vn 0.000000 -0.611012 -0.791621
vn 0.791622 -0.611011 0.000000
vn 0.791622 -0.611011 0.000000
vn 0.000000 -0.000001 1.000000
vn 0.000000 -0.000001 1.000000
vn -1.000000 -0.000002 0.000000
vn -1.000000 -0.000002 0.000000
vn 0.000000 -0.000001 -1.000000
vn 0.000000 -0.000001 -1.000000
vn 1.000000 -0.000002 0.000000
vn 1.000000 -0.000002 0.000000
vn 0.000000 0.000000 1.000000
vn 0.000000 0.000000 1.000000
vn -1.000000 0.000000 0.000000
vn -1.000000 0.000000 0.000000
vn 0.000000 0.000000 -1.000000
vn 0.000000 0.000000 -1.000000
vn 1.000000 0.000000 0.000000
vn 1.000000 0.000000 0.000000
s 1
g pCube7
usemtl initialShadingGroup
f 1/1/1 2/2/2 37/57/3 38/58/4
s off
f 3/3/5 4/4/6 6/6/7 5/5/8
s 2
f 39/60/9 40/61/10 8/8/11 7/7/12
s off
f 7/7/13 8/8/14 2/10/15 1/9/16
s 3
f 2/2/17 8/11/18 40/62/19 37/57/20
s 4
f 7/13/21 1/1/22 38/58/23 39/59/24
s 1
f 10/16/25 9/15/26 4/4/27 3/3/28
s 4
f 11/17/29 10/16/30 3/3/31 5/14/32
s 2
f 5/5/33 6/6/34 12/19/35 11/18/36
s 3
f 9/15/37 12/20/38 6/12/39 4/4/40
s 1
f 14/22/41 13/21/42 9/15/26 10/16/25
s 4
f 15/23/43 14/22/44 10/16/30 11/17/29
s 2
f 11/18/36 12/19/35 16/25/45 15/24/46
s 3
f 13/21/47 16/26/48 12/20/38 9/15/37
s 1
f 18/28/49 17/27/50 13/21/42 14/22/41
s 4
f 19/29/51 18/28/52 14/22/44 15/23/43
s 2
f 15/24/46 16/25/45 20/31/53 19/30/54
s 3
f 17/27/55 20/32/56 16/26/48 13/21/47
s 1
f 22/34/57 21/33/58 17/27/50 18/28/49
s 4
f 23/35/59 22/34/60 18/28/52 19/29/51
s 2
f 19/30/54 20/31/53 24/37/61 23/36/62
s 3
f 21/33/63 24/38/64 20/32/56 17/27/55
s 1
f 26/40/65 25/39/66 21/33/58 22/34/57
s 4
f 27/41/67 26/40/68 22/34/60 23/35/59
s 2
f 23/36/62 24/37/61 28/43/69 27/42/70
s 3
f 25/39/71 28/44/72 24/38/64 21/33/63
s 1
f 30/46/73 29/45/74 25/39/66 26/40/65
s 4
f 31/47/75 30/46/76 26/40/68 27/41/67
s 2
f 27/42/70 28/43/69 32/49/77 31/48/78
s 3
f 29/45/79 32/50/80 28/44/72 25/39/71
s 1
f 34/52/81 33/51/82 29/45/74 30/46/73
s 4
f 35/53/83 34/52/84 30/46/76 31/47/75
s 2
f 31/48/78 32/49/77 36/55/85 35/54/86
s 3
f 33/51/87 36/56/88 32/50/80 29/45/79
s 1
f 38/58/4 37/57/3 33/51/82 34/52/81
s 4
f 39/59/24 38/58/23 34/52/84 35/53/83
s 2
f 35/54/86 36/55/85 40/61/10 39/60/9
s 3
f 37/57/20 40/62/19 36/56/88 33/51/87
